# xmcd
#
# Track frame offsets: 
#        150
#        12705
#        25418
#        37769
#        48519
#        62273
#        74765
#        86480
#        100629
#        114154
#        128626
#        141688
#        155127
#        167512
#        180649
#        194088
#        206538
#        219239
#        231979
#        246546
#        260463
#        273670
#        287249
#        299579
#        312808
#
# Disc length: 4349 seconds
#
# Revision: 1
# Processed by: cddbd v1.5.2PL0 Copyright (c) Steve Scherf et al.
# Submitted via: ExactAudioCopy v0.99pb5
#
DISCID=8310fb19
DTITLE=Billie Holiday - The Complete Columbia Golden Years Volume 3 CD
DTITLE=2
DYEAR=1938
DGENRE=Jazz
TTITLE0=The Very Thought of You (-1)
TTITLE1=I Can't Get Started (-1)
TTITLE2=I've Got A Date with A Dream (-2)
TTITLE3=You Can't Be Mine (-1)
TTITLE4=Everybody's Laughing (-1)
TTITLE5=Here It Is Tomorrow Again (-1)
TTITLE6=Say It With A Kiss (-1)
TTITLE7=April In My Heart (-1)
TTITLE8=I'll Never Fail You (-1)
TTITLE9=They Say (-1)
TTITLE10=You're So Desirable (-1)
TTITLE11=You're Gonna See A Lot of Me (-1)
TTITLE12=Hello, My Darling (-1)
TTITLE13=Let's Dream In the Moonlight (-2)
TTITLE14=That's All I Ask of You (-1)
TTITLE15=Dream of Life (-1)
TTITLE16=I Can't Get Started (-2)
TTITLE17=I've Got A Date with A Dream (-1)
TTITLE18=April In My Heart (-2)
TTITLE19=They Say (-2)
TTITLE20=You're So Desirable (-2)
TTITLE21=You're Gonna See A Lot of Me (-2)
TTITLE22=Hello, My Darling (-2)
TTITLE23=Let's Dream In the Moonlight (-1)
TTITLE24=That's All I Ask of You (-2)
EXTD=YEAR: 1938
EXTT0=
EXTT1=
EXTT2=
EXTT3=
EXTT4=
EXTT5=
EXTT6=
EXTT7=
EXTT8=
EXTT9=
EXTT10=
EXTT11=
EXTT12=
EXTT13=
EXTT14=
EXTT15=
EXTT16=
EXTT17=
EXTT18=
EXTT19=
EXTT20=
EXTT21=
EXTT22=
EXTT23=
EXTT24=
PLAYORDER=
